<?xml version="1.0" encoding="UTF-8"?>
<svg id="Layer_2" data-name="Layer 2" xmlns="http://www.w3.org/2000/svg" viewBox="0 0 298.14 152.94">
  <defs>
    <style>
      .cls-1 {
        fill: #fbb040;
      }

      .cls-2 {
        fill: #f7941d;
      }
    </style>
  </defs>
  <g id="Layer_1-2" data-name="Layer 1">
    <g>
      <path d="m296.04,71.24c-5.68-9.61-13.47-18.56-22.94-26.79-14.22-12.34-32.26-23.08-53.08-31.84-.01,0-.02,0-.03-.01,6.05,6.75,11.11,14.39,14.98,22.7,11.07,6.03,20.82,12.67,28.95,19.73,7.28,6.32,13.25,12.97,17.81,19.78-4.56,6.81-10.53,13.46-17.81,19.78-8.29,7.2-18.26,13.96-29.59,20.08-4.1,8.45-9.45,16.17-15.81,22.94,7.48-3.09,14.62-6.43,21.35-10.02,12.57-6.69,23.75-14.2,33.23-22.43,9.48-8.23,17.26-17.18,22.94-26.79l2.11-3.56-2.11-3.56Z"/>
      <path d="m69.27,117.51c-1.49-.75-2.96-1.51-4.41-2.28-11.77-6.27-22.09-13.23-30.63-20.65-7.28-6.32-13.26-12.97-17.81-19.78,4.56-6.81,10.53-13.46,17.81-19.78,9.43-8.19,21.02-15.81,34.33-22.57,4.21-8.28,9.62-15.84,16.01-22.45-9.3,3.63-18.1,7.64-26.29,12.01-12.57,6.69-23.75,14.2-33.23,22.43-9.48,8.23-17.26,17.18-22.94,26.79l-2.11,3.56,2.11,3.56c5.68,9.61,13.47,18.56,22.94,26.79,14.22,12.34,32.26,23.08,53.08,31.84,2.64,1.11,5.33,2.19,8.06,3.24-6.74-6.63-12.46-14.29-16.92-22.72Z"/>
      <path d="m232.75,75.89c0-11.3-2.29-22.11-6.45-31.92-4.44-10.5-11.01-19.86-19.14-27.58.76,2.64,1.18,5.4,1.18,8.21,0,3.46-.61,6.85-1.74,10.03-.19.53-.41,1.05-.63,1.57.4.55.79,1.1,1.17,1.67,7.33,10.86,11.61,23.91,11.61,38.01,0,9.41-1.9,18.33-5.34,26.47-1.82,4.31-4.09,8.4-6.73,12.2.78,1.55,1.45,3.15,1.97,4.82.9,2.86,1.38,5.88,1.38,8.96,0,1.54-.13,3.07-.36,4.57,3.33-3.45,6.37-7.18,9.07-11.17,8.84-13.08,14.01-28.89,14.01-45.85Z"/>
      <path d="m94.19,128.34c0-3.46.61-6.85,1.74-10.03.17-.49.38-.96.58-1.44-.73-.97-1.45-1.96-2.14-2.97-7.33-10.86-11.61-23.91-11.61-38.01,0-9.41,1.9-18.33,5.34-26.47,1.89-4.47,4.25-8.69,7.01-12.61-.46-1.06-.88-2.14-1.23-3.25-.9-2.86-1.38-5.88-1.38-8.96,0-2.49.32-4.95.92-7.31-3.96,3.87-7.53,8.14-10.65,12.74-8.84,13.08-14.01,28.89-14.01,45.85,0,11.3,2.29,22.11,6.45,31.92,4.61,10.9,11.51,20.58,20.09,28.46-.7-2.56-1.1-5.22-1.1-7.93Z"/>
      <path d="m188.95,139.8c2.23-2.4,3.68-4.87,4.44-7.28.43-1.38.65-2.76.65-4.18,0,0,0-.01,0-.02-1.69,1.4-3.45,2.72-5.27,3.95-10.86,7.33-23.91,11.61-38.01,11.61-9.41,0-18.33-1.9-26.47-5.34-4.96-2.1-9.62-4.78-13.91-7.95.14.82.34,1.63.63,2.44.55,1.55,1.39,3.12,2.54,4.69,2.3,3.13,5.91,6.21,10.6,8.73,3.13,1.69,6.72,3.13,10.66,4.21,5.25,1.45,11.12,2.27,17.3,2.27,8.12,0,15.68-1.42,22.04-3.81,6.36-2.38,11.47-5.74,14.8-9.34Z"/>
      <path d="m113.57,13.15c-2.23,2.4-3.68,4.87-4.44,7.28-.21.69-.37,1.37-.48,2.06,1.32-1.04,2.68-2.04,4.08-2.99,10.86-7.33,23.91-11.61,38.01-11.61,9.41,0,18.33,1.9,26.47,5.34,5.32,2.25,10.3,5.16,14.83,8.63-.13-.65-.3-1.3-.53-1.95-.55-1.55-1.39-3.12-2.54-4.69-2.3-3.13-5.91-6.21-10.6-8.73-3.13-1.69-6.72-3.13-10.66-4.21C162.46.82,156.6,0,150.41,0c-8.12,0-15.68,1.42-22.04,3.81-6.36,2.38-11.47,5.74-14.8,9.34Z"/>
      <path class="cls-2" d="m118.88,116.93l8.33-11.25c-4.43-3.57-7.85-7.92-10.22-12.73-2.59-5.25-3.92-11.04-3.92-16.86,0-7.87,2.42-15.76,7.47-22.58,3.74-5.05,8.46-8.88,13.71-11.47,5.25-2.59,11.04-3.92,16.86-3.92,7.37,0,14.75,2.12,21.26,6.53l.49-.66-.35-.41h0s1.78-1.52,1.78-1.52l6.41-8.66c-8.99-6.24-19.35-9.28-29.59-9.28-7.95,0-15.85,1.82-23.05,5.36-7.19,3.54-13.69,8.82-18.78,15.69-6.88,9.28-10.22,20.17-10.22,30.91,0,7.95,1.82,15.85,5.36,23.05,3.32,6.75,8.19,12.87,14.45,17.8Z"/>
      <polygon class="cls-1" points="187.77 65.07 188.9 67.43 189.15 68.88 189.08 69.99 203.21 68.17 203.21 68.07 202.37 63.14 200.67 59.6 199.77 57.18 199.38 55.76 186.58 61.85 187.77 65.07"/>
      <polygon class="cls-1" points="126.86 121.79 133.3 109.09 130.96 108.4 129.6 107.5 123.43 115.83 121.42 118.87 125 121.24 126.86 121.79"/>
      <polygon class="cls-1" points="189.55 75.47 189.52 77.62 189.11 80.77 189.05 83.41 188.99 83.63 202.59 87.04 203.01 85.68 203.09 81.83 203.51 78.61 203.56 74.34 203.19 72.2 189.29 74 189.55 75.47"/>
      <polygon class="cls-1" points="141.27 112.9 139.78 112.46 138.68 111.74 132.31 124.31 133.8 125.3 138.52 126.68 139.67 126.81 142.79 113.07 141.27 112.9"/>
      <polygon class="cls-1" points="148.8 128.37 153.37 128.11 156.3 127.7 155.15 113.72 154.83 113.77 152 114.16 150.12 114.27 147.57 113.64 146.79 113.54 143.67 127.26 145.02 127.43 148.8 128.37"/>
      <polygon class="cls-1" points="186.38 91.08 185.28 93.93 184.34 95.93 195.63 104.24 196.39 103.21 198.17 99.42 199.39 96.25 200.69 93.09 201.39 90.87 187.79 87.45 187.52 88.3 186.38 91.08"/>
      <polygon class="cls-1" points="183.41 34.78 174.86 46.33 175.06 46.57 177.81 48.8 178.61 49.57 188.75 39.9 187.1 38.31 184.88 36.51 183.41 34.78"/>
      <polygon class="cls-1" points="163.49 126.95 168.14 125.56 171.36 123.73 174.24 122.46 175.01 122.03 168.43 109.68 168.02 109.9 165.06 111.21 162.62 112.6 161.08 113.06 158.28 113.21 157.13 113.39 158.28 127.39 159.79 127.15 163.49 126.95"/>
      <polygon class="cls-1" points="181.71 52.47 182.73 54.14 184.32 57.29 185.84 59.34 186 59.91 198.84 53.81 198.63 53.08 196.28 49.91 194.97 47.31 192.61 43.47 191.69 42.63 181.53 52.31 181.71 52.47"/>
      <polygon class="cls-1" points="178.81 103.04 177.51 104.32 175.84 105.63 173.34 106.86 171.91 107.7 178.5 120.07 179.99 119.19 183.33 117.54 186.77 114.86 190.09 111.58 191.63 108.79 191.65 108.77 180.27 100.39 178.81 103.04"/>
      <polygon class="cls-1" points="172.51 43.57 172.86 43.99 174.29 42.05 172.51 43.57 172.51 43.57"/>
    </g>
  </g>
</svg>