<?xml version="1.0" encoding="UTF-8"?>
<svg id="Layer_2" data-name="Layer 2" xmlns="http://www.w3.org/2000/svg" viewBox="0 0 206.99 126.4">
  <defs>
    <style>
      .cls-1 {
        fill: #4d4d4d;
      }

      .cls-2 {
        fill: #fbb040;
      }

      .cls-3 {
        fill: #f7941d;
      }

      .cls-4 {
        fill: #1a1a1a;
      }
    </style>
  </defs>
  <g id="Layer_1-2" data-name="Layer 1">
    <g>
      <path class="cls-1" d="m206.12,59.38c-7.76-15.72-21.41-29.65-38.98-40.88-.9-.58-1.82-1.14-2.74-1.7,3.63,4.9,6.67,10.26,9.03,15.98,10.78,8.52,19.19,18.15,24.6,28.37-5.37,10.14-13.68,19.7-24.34,28.17-2.27,5.65-5.2,10.95-8.71,15.82.72-.45,1.45-.89,2.16-1.34,17.57-11.23,31.22-25.16,38.98-40.88l.87-1.77-.87-1.77Z"/>
      <path class="cls-1" d="m35.03,90.67c-11.49-8.8-20.41-18.84-26.06-29.52,5.71-10.78,14.73-20.91,26.37-29.77,2.49-5.7,5.67-11.03,9.43-15.88-1.67.98-3.32,1.97-4.92,3C22.29,29.72,8.63,43.66.87,59.38l-.87,1.77.87,1.77c7.76,15.72,21.41,29.65,38.98,40.88,1.39.89,2.82,1.76,4.26,2.61-3.63-4.83-6.69-10.11-9.09-15.74Z"/>
      <path class="cls-4" d="m55.88,105.92c0-2.95.52-5.84,1.48-8.54.34-.95.75-1.88,1.18-2.78-6-9.11-9.5-20.06-9.5-31.89,0-11.48,3.31-22.12,8.98-31.06-.54-1.14-1.02-2.32-1.4-3.53-.76-2.44-1.18-5.01-1.18-7.63,0-2.01.26-3.98.71-5.89-2.77,2.92-5.3,6.08-7.53,9.45-7.32,11.04-11.59,24.37-11.59,38.66,0,18.8,7.39,35.9,19.39,48.38-.35-1.68-.55-3.41-.55-5.17Z"/>
      <path class="cls-4" d="m152.53,13.19c.7,2.34,1.08,4.79,1.08,7.29,0,2.95-.52,5.84-1.48,8.54-.2.57-.43,1.13-.67,1.68,6.04,9.13,9.57,20.12,9.57,32,0,11.88-3.53,22.89-9.58,32.02.55,1.15,1.03,2.34,1.41,3.56.76,2.44,1.18,5.01,1.18,7.63,0,1.84-.22,3.64-.61,5.4,2.96-3.05,5.65-6.38,8.01-9.95,7.32-11.04,11.59-24.37,11.59-38.66,0-19.06-7.59-36.38-19.87-48.9-.2-.21-.42-.41-.63-.61Z"/>
      <path class="cls-4" d="m105.04,5.49c7.73,0,15.07,1.59,21.76,4.48,4.44,1.91,8.59,4.4,12.37,7.37-.07-.24-.14-.49-.23-.73-.45-1.28-1.15-2.58-2.11-3.88-1.91-2.6-4.92-5.17-8.85-7.29-2.62-1.41-5.63-2.62-8.93-3.53C114.64.69,109.72,0,104.53,0c-6.81,0-13.16,1.19-18.49,3.19-5.33,1.99-9.6,4.81-12.38,7.81-1.86,2-3.06,4.05-3.68,6.04-.14.44-.24.89-.33,1.33,4.1-3.42,8.69-6.27,13.63-8.4,6.69-2.88,14.02-4.48,21.76-4.48Z"/>
      <path class="cls-4" d="m135.82,115.4c1.86-2,3.06-4.05,3.68-6.04.2-.64.34-1.28.43-1.93-3.98,3.25-8.39,5.96-13.14,8.01-6.69,2.88-14.02,4.48-21.76,4.48-7.73,0-15.07-1.59-21.76-4.48-4.81-2.07-9.28-4.83-13.31-8.14.1.83.29,1.65.58,2.48.45,1.28,1.15,2.58,2.11,3.89,1.91,2.6,4.92,5.17,8.85,7.29,2.62,1.41,5.63,2.62,8.93,3.53,4.4,1.22,9.32,1.91,14.52,1.91,6.81,0,13.16-1.19,18.49-3.19,5.33-1.99,9.6-4.81,12.38-7.81Z"/>
      <path class="cls-3" d="m62.23,84c2.95,5.99,7.24,11.43,12.75,15.84l8.39-11.2c-3.71-3.06-6.57-6.75-8.58-10.83-2.25-4.57-3.41-9.6-3.41-14.66,0-6.84,2.1-13.7,6.49-19.63,3.25-4.39,7.35-7.72,11.92-9.97,4.57-2.25,9.6-3.41,14.66-3.41,6.41,0,12.81,1.87,18.47,5.7l.45-.6-.36-.4h0s1.99-1.77,1.99-1.77l6.33-8.46c-8.15-5.7-17.58-8.48-26.88-8.47-7.19,0-14.34,1.64-20.85,4.85-6.51,3.2-12.39,7.98-16.99,14.2-6.22,8.4-9.25,18.25-9.24,27.96,0,7.19,1.64,14.34,4.85,20.85Z"/>
      <polygon class="cls-2" points="80.62 103.21 82.43 104.55 88.84 91.88 88.46 91.59 86.03 90.11 81.15 96.62 78.07 101.65 80.62 103.21"/>
      <polygon class="cls-2" points="117.72 108.05 121.55 107.35 125.68 105.7 126.47 105.27 119.84 92.93 119.7 93.01 117.64 93.83 114.89 94.34 111.69 95.07 110.74 95.25 112.21 109.21 114.51 108.79 117.72 108.05"/>
      <polygon class="cls-2" points="107.43 109.76 110.23 109.52 108.77 95.59 105.77 95.85 103 96.27 101.25 96.15 98.19 109.86 98.72 110.02 103.6 110.34 107.43 109.76"/>
      <polygon class="cls-2" points="135.79 75.26 134.72 77.31 133.34 79.82 144.63 88.13 145.28 87.17 147.07 83.91 149.07 80.06 149.72 77.08 136.16 73.55 135.79 75.26"/>
      <polygon class="cls-2" points="145.52 39.36 143.28 35.37 141.59 33.63 131.36 43.19 131.97 43.82 132.99 45.64 134.38 48.78 134.82 49.5 147.6 43.58 146.81 42.28 145.52 39.36"/>
      <polygon class="cls-2" points="149.83 50.03 148.93 45.77 148.65 45.3 135.78 51.26 136.2 53.26 137.14 56.82 137.39 57.57 151.5 55.68 150.57 52.84 149.83 50.03"/>
      <polygon class="cls-2" points="88.24 107.23 91.89 108.21 94.34 108.75 97.39 95.09 95.23 94.61 94.31 94.36 87.87 107.09 88.24 107.23"/>
      <polygon class="cls-2" points="137.55 64.16 137.61 67.45 137.24 69.66 137.23 69.69 150.78 73.22 150.91 72.8 151.63 68.48 151.57 65.15 152.12 61.71 152 59.64 137.97 61.53 137.55 64.16"/>
      <polygon class="cls-2" points="137.78 29.72 135.39 27.69 133.98 26.1 125.41 37.54 125.58 37.73 128.21 39.96 128.57 40.33 138.8 30.77 137.78 29.72"/>
      <polygon class="cls-2" points="129.98 84.79 129.95 84.84 128.46 86.68 126.92 87.98 123.8 89.76 123.06 90.48 129.95 103.31 132.28 101.04 134.96 99.51 138.52 96.51 141.22 93.16 141.26 93.1 129.98 84.79"/>
      <polygon class="cls-2" points="123.02 34.85 123.37 35.25 125 33.08 123.02 34.85 123.02 34.85"/>
    </g>
  </g>
</svg>